<svg width="40.623230" height="43.408203" viewBox="0 0 40.6232 43.4082" fill="none" xmlns="http://www.w3.org/2000/svg" xmlns:xlink="http://www.w3.org/1999/xlink">
	<desc>
		
	</desc>
	<defs>
		<clipPath id="clip2_417">
			<rect id="Arrow 4" rx="0.000000" width="28.161688" height="34.212955" transform="matrix(-0.898735 -0.438492 -0.438492 0.898735 40.7396 12.5671)" fill="white" fill-opacity="0"/>
		</clipPath>
	</defs>
	<g clip-path="url(#clip2_417)">
		<path id="Arrow 03" d="M40.35 13C39.47 11.53 38.06 11.17 36.71 11.01C34.83 10.8 32.91 10.8 31.06 10.99C22.55 12.11 15.73 16.29 10.48 23C9.15 24.71 8.05 26.64 6.72 28.68C5.45 26.8 5.49 24.35 4.27 22.33C3.62 23.11 3.78 23.9 3.9 24.56C4.39 27.27 4.93 30 5.53 32.71C5.83 34 6.36 34.37 7.55 33.97C10.03 33.15 12.03 31.65 13.46 29.5C13.5 29.41 13.44 29.22 13.37 28.91C11.22 28.46 10.48 31.12 8.4 31.2C9.19 27.8 11.14 25.13 13.33 22.69C15.62 20.13 18.11 17.84 21.12 16.18C24.06 14.54 27.2 13.61 30.5 12.91C33.79 12.16 37.03 12.26 40.35 13Z" fill="#000000" fill-opacity="1.000000" fill-rule="nonzero"/>
	</g>
</svg>
