<svg width="29.216675" height="33.376892" viewBox="0 0 29.2167 33.3769" fill="none" xmlns="http://www.w3.org/2000/svg" xmlns:xlink="http://www.w3.org/1999/xlink">
	<desc>
			Created with Pixso.
	</desc>
	<defs/>
	<path id="Arrow 03" d="M28.01 33.37C29.25 32.2 29.29 30.73 29.16 29.38C28.94 27.51 28.53 25.63 27.93 23.87C24.97 15.82 19.39 10.08 11.69 6.43C9.73 5.51 7.61 4.86 5.33 4.01C6.89 2.35 9.28 1.86 10.98 0.23C10.08 -0.24 9.34 0.09 8.73 0.35C6.19 1.43 3.65 2.55 1.14 3.73C-0.06 4.31 -0.31 4.91 0.35 5.98C1.7 8.22 3.59 9.84 6.01 10.77C6.1 10.79 6.28 10.68 6.57 10.54C6.53 8.35 3.78 8.21 3.24 6.21C6.73 6.22 9.76 7.55 12.62 9.14C15.62 10.81 18.41 12.74 20.69 15.31C22.93 17.82 24.53 20.68 25.93 23.75C27.39 26.78 28.01 29.97 28.01 33.37Z" fill="#FFFFFF" fill-opacity="1.000000" fill-rule="nonzero"/>
</svg>
